<svg width="20" height="17" viewBox="0 0 20 17" fill="none" xmlns="http://www.w3.org/2000/svg">
<path d="M11.8886 7.11146L10.9169 6.66229C10.5594 6.49729 10.5594 5.99312 10.9169 5.82812L11.8886 5.37896L12.3377 4.41646C12.5027 4.05896 13.0069 4.05896 13.1719 4.41646L13.6211 5.38813L14.5836 5.83729C14.9411 6.00229 14.9411 6.50646 14.5836 6.67146L13.6119 7.12063L13.1627 8.08313C12.9977 8.44063 12.4936 8.44063 12.3286 8.08313L11.8886 7.11146ZM3.07939 9.91646L3.52855 8.94479L4.50022 8.49563C4.85772 8.33063 4.85772 7.82646 4.50022 7.66146L3.52855 7.21229L3.07939 6.24979C2.92355 5.89229 2.41022 5.89229 2.25439 6.24979L1.80522 7.22146L0.833555 7.67063C0.476055 7.83563 0.476055 8.33979 0.833555 8.50479L1.80522 8.95396L2.25439 9.91646C2.41022 10.274 2.92355 10.274 3.07939 9.91646ZM7.21355 5.32396L7.79106 4.04063L9.07439 3.46313C9.43189 3.29813 9.43189 2.79396 9.07439 2.62896L7.79106 2.05146L7.21355 0.768125C7.04855 0.410625 6.54439 0.410625 6.37939 0.768125L5.80189 2.05146L4.51855 2.62896C4.16105 2.79396 4.16105 3.29813 4.51855 3.46313L5.80189 4.04063L6.37939 5.32396C6.53522 5.68146 7.04855 5.68146 7.21355 5.32396ZM19.4786 5.58063C19.1119 5.21396 18.4977 5.22313 18.1494 5.61729L12.2919 12.199L9.27605 9.18313C8.91855 8.82563 8.34105 8.82563 7.98355 9.18313L2.44689 14.729C2.07105 15.1048 2.07105 15.7281 2.44689 16.104C2.82272 16.4798 3.44605 16.4798 3.82189 16.104L8.63439 11.2823L11.6136 14.2615C11.9894 14.6373 12.5944 14.619 12.9427 14.2248L19.5152 6.82729C19.8361 6.46979 19.8177 5.91979 19.4786 5.58063Z" fill="#404446"/>
<path d="M11.8886 7.11146L10.9169 6.66229C10.5594 6.49729 10.5594 5.99312 10.9169 5.82812L11.8886 5.37896L12.3377 4.41646C12.5027 4.05896 13.0069 4.05896 13.1719 4.41646L13.6211 5.38813L14.5836 5.83729C14.9411 6.00229 14.9411 6.50646 14.5836 6.67146L13.6119 7.12063L13.1627 8.08313C12.9977 8.44063 12.4936 8.44063 12.3286 8.08313L11.8886 7.11146ZM3.07939 9.91646L3.52855 8.94479L4.50022 8.49563C4.85772 8.33063 4.85772 7.82646 4.50022 7.66146L3.52855 7.21229L3.07939 6.24979C2.92355 5.89229 2.41022 5.89229 2.25439 6.24979L1.80522 7.22146L0.833555 7.67063C0.476055 7.83563 0.476055 8.33979 0.833555 8.50479L1.80522 8.95396L2.25439 9.91646C2.41022 10.274 2.92355 10.274 3.07939 9.91646ZM7.21355 5.32396L7.79106 4.04063L9.07439 3.46313C9.43189 3.29813 9.43189 2.79396 9.07439 2.62896L7.79106 2.05146L7.21355 0.768125C7.04855 0.410625 6.54439 0.410625 6.37939 0.768125L5.80189 2.05146L4.51855 2.62896C4.16105 2.79396 4.16105 3.29813 4.51855 3.46313L5.80189 4.04063L6.37939 5.32396C6.53522 5.68146 7.04855 5.68146 7.21355 5.32396ZM19.4786 5.58063C19.1119 5.21396 18.4977 5.22313 18.1494 5.61729L12.2919 12.199L9.27605 9.18313C8.91855 8.82563 8.34105 8.82563 7.98355 9.18313L2.44689 14.729C2.07105 15.1048 2.07105 15.7281 2.44689 16.104C2.82272 16.4798 3.44605 16.4798 3.82189 16.104L8.63439 11.2823L11.6136 14.2615C11.9894 14.6373 12.5944 14.619 12.9427 14.2248L19.5152 6.82729C19.8361 6.46979 19.8177 5.91979 19.4786 5.58063Z" fill="black" fill-opacity="0.2"/>
</svg>
